<?xml version="1.0" encoding="utf-8"?>
<!-- Generator: Adobe Illustrator 20.1.0, SVG Export Plug-In . SVG Version: 6.00 Build 0)  -->
<svg version="1.1" id="Layer_1" xmlns="http://www.w3.org/2000/svg" xmlns:xlink="http://www.w3.org/1999/xlink" x="0px" y="0px"
	 viewBox="0 0 302.3 289" style="enable-background:new 0 0 302.3 289;" xml:space="preserve">
<style type="text/css">
	.st0{fill:#FFFFFF;}
</style>
<path class="st0" d="M299.4,265.1c0-0.1,0.1-0.2,0.1-0.3l0,0c0-0.2,0-0.4,0-0.6l0,0L289.2,217c-0.1-0.5-0.4-1-0.9-1.3l-26.6-18.3
	c-0.1,0-0.1-0.1-0.2-0.1s0,0-0.1-0.1h-0.1c-0.3-0.1-0.5-0.2-0.8-0.2h-0.1c-0.3,0-0.5,0.1-0.8,0.2h-0.1l-5.1,2.6l-1.3-7.4
	c-0.1-0.6-0.4-1.1-0.9-1.4l-13.2-9l9.6-4.9h0.1h0.1c0,0,0.1-0.1,0.1-0.1c0.1-0.1,0.2-0.1,0.3-0.2l0.2-0.2c0.2-0.3,0.4-0.7,0.4-1.1
	c0,0,0,0,0-0.1c0-0.1,0-0.3,0-0.4c0,0,0-0.1,0-0.1l0,0l0,0l-7.3-45.1c-0.1-0.5-0.4-1-0.8-1.3l-35.4-29c-0.1-0.1-0.3-0.2-0.4-0.3l0,0
	l-0.3-0.1c-0.1,0-0.2-0.1-0.3-0.1H205h-0.4h-0.2c-0.1,0-0.3,0.1-0.4,0.1h-0.1l0,0h-0.1l-8.9,5.7l-1.3-16.3c0-0.6-0.3-1.1-0.8-1.5
	l-5-4.2l4.2-3c0,0,0-0.1,0.1-0.1c0.2-0.2,0.4-0.4,0.6-0.6l0,0c0.1-0.3,0.2-0.5,0.2-0.8c0,0,0-0.1,0-0.1s0-0.1,0-0.1s0-0.1,0-0.2
	L190.3,46c0-0.5-0.3-1-0.7-1.4l-35.8-32.5l0,0c-0.2-0.1-0.3-0.2-0.5-0.3l0,0c-0.1,0-0.1,0-0.2-0.1c-0.1,0-0.2-0.1-0.4-0.1
	c-0.2,0-0.4,0-0.6,0c-0.1,0-0.2,0.1-0.4,0.1c-0.1,0-0.1,0-0.2,0.1l0,0c-0.1,0.1-0.2,0.1-0.3,0.2c-0.1,0-0.2,0.1-0.2,0.2l0,0
	l-35.8,32.5c-0.4,0.4-0.6,0.9-0.7,1.4L112,78.2c0,0.1,0,0.1,0,0.2s0,0.1,0,0.1s0,0.1,0,0.1c0,0.3,0.1,0.5,0.2,0.8l0,0
	c0.1,0.2,0.3,0.5,0.6,0.6c0,0,0,0.1,0.1,0.1l4.2,3l-5,4.2c-0.4,0.4-0.7,0.9-0.8,1.5l-1.3,16.3l-8.9-5.7H101l0,0h-0.1
	c-0.1-0.1-0.3-0.1-0.4-0.1h-0.2c-0.1,0-0.2,0-0.4,0h-0.2c-0.1,0-0.2,0-0.3,0.1l-0.2,0.1h-0.1c-0.1,0.1-0.2,0.1-0.3,0.2
	c-0.1,0-0.1,0.1-0.2,0.1l-35.4,28.8c-0.4,0.3-0.7,0.8-0.8,1.3l-7.3,45.1c0,0,0,0.1,0,0.1c0,0.1,0,0.3,0,0.4c0,0,0,0,0,0.1
	c0,0.1,0,0.1,0,0.2c0.1,0.3,0.2,0.6,0.4,0.9l0.2,0.2c0.1,0.1,0.2,0.2,0.3,0.3c0,0,0.1,0.1,0.1,0.1h0.1h0.1l9.6,4.9l-13.2,9.1
	c-0.5,0.3-0.8,0.8-0.9,1.4l-1.3,7.4l-5.2-2.6h-0.1c-0.2-0.1-0.5-0.2-0.8-0.2h-0.1c-0.3,0-0.6,0.1-0.8,0.2h-0.1l-0.1,0.1
	c-0.1,0-0.1,0.1-0.2,0.1l-26.6,18.3c-0.4,0.3-0.8,0.8-0.9,1.3L5.5,264.2l0,0c0,0.1,0,0.2,0,0.3c0,0.1,0,0.2,0,0.3l0,0
	c0,0.1,0,0.2,0.1,0.2c0,0.1,0.1,0.2,0.1,0.3c0,0.1,0.1,0.2,0.1,0.3c0,0.1,0.1,0.2,0.2,0.3c0.1,0.1,0.2,0.2,0.3,0.3
	c0.1,0.1,0.1,0.1,0.2,0.2l0,0c0.2,0.1,0.4,0.2,0.6,0.3l46,14.7c0.5,0.2,1.1,0.1,1.6-0.1l29.2-13.9l0.1-0.1l0.1-0.1
	c0,0,0-0.1,0.1-0.1c0.2-0.2,0.4-0.4,0.6-0.6l0,0c0.1-0.2,0.2-0.5,0.3-0.8c0,0,0-0.1,0-0.1l0.6-5.9l6.7,2.5c0.2,0.1,0.5,0.1,0.7,0.1
	c0.3,0,0.6-0.1,0.9-0.2l42.6-20.2l0.1-0.1l0.1-0.1c0.1,0,0.1-0.1,0.2-0.1l0.2-0.1c0.1-0.1,0.2-0.2,0.3-0.3l0.1-0.1
	c0.1-0.2,0.2-0.3,0.2-0.5c0,0,0-0.1,0-0.1c0-0.1,0.1-0.3,0.1-0.4l0.5-12.3l13.5,6.4c0.6,0.3,1.3,0.3,1.8,0l13.5-6.4l0.5,12.3
	c0,0.1,0,0.3,0.1,0.4c0,0,0,0.1,0,0.1c0.1,0.2,0.1,0.4,0.2,0.5l0.1,0.1c0.1,0.1,0.2,0.2,0.3,0.3l0.2,0.1c0.1,0,0.1,0.1,0.2,0.1
	l0.1,0.1l0.1,0.1l42.6,20.3c0.3,0.1,0.6,0.2,0.9,0.2c0.3,0,0.5,0,0.7-0.1l6.7-2.5l0.6,5.9c0,0,0,0.1,0,0.1c0,0.3,0.1,0.6,0.3,0.8
	l0,0c0.2,0.2,0.3,0.4,0.6,0.6c0,0,0,0.1,0.1,0.1l0.1,0l0.1,0.1l29.2,13.9c0.5,0.2,1.1,0.3,1.6,0.1l46-14.7c0.2-0.1,0.4-0.2,0.6-0.3
	l0,0c0.1-0.1,0.1-0.1,0.2-0.2c0.1-0.1,0.2-0.1,0.3-0.2c0.1-0.1,0.1-0.2,0.1-0.3c0.1-0.1,0.1-0.2,0.1-0.3
	C299.3,265.4,299.4,265.3,299.4,265.1z M285.2,218.7l9,41.7l-23-13.3l-7.8-43.3L285.2,218.7z M243.6,174.9l-8.4,4.3l-21.8-14.8h-0.1
	l-0.1-0.1c-0.1,0-0.2-0.1-0.2-0.1l-0.1-0.1h-0.1c-0.1,0-0.3-0.1-0.4-0.1h-0.2c-0.2,0-0.3,0-0.5,0.1h-0.1c-0.1,0-0.2,0.1-0.4,0.1
	l-11,5.5l-1-13.3l10.8-6.4l25.9,19.1L243.6,174.9z M154.6,128.8l24.6,16.8c0.1,0.1,0.3,0.3,0.4,0.4l15.4,10.5l3.8,48.8l-44.2-26.1
	L154.6,128.8z M152.5,107.2l38.8,28.5l-10.3,6L153.6,123l-0.1-0.1l-0.1-0.1l-0.2-0.1l-0.2-0.1H153h-0.3h-0.2h-0.1h-0.2h-0.3h-0.1
	l-0.2,0.1l-0.2,0.1l-0.1,0.1l-0.1,0.1L124,141.7l-4.4-2.6l-5.9-3.4l21.8-16L152.5,107.2z M61.7,174.6l33.3-24.6l10.8,6.4l-1,13.3
	l-11-5.5c-0.1,0-0.2-0.1-0.3-0.1h-0.1h-0.1L93,164c-0.1,0-0.2,0-0.3,0l0,0h-0.2c-0.1,0-0.2,0-0.3,0.1h-0.1l-0.1,0.1l-0.2,0.1
	l-0.1,0.1h-0.1l-21.9,14.9l-8.4-4.3L61.7,174.6z M106.2,205.2v-0.6l2.4-31.4l0.8-11l0.4-5.7l15.5-10.5l0,0l25-17.2v50.3l-24.2,14.3
	L106.2,205.2z M202.2,211h0.1c0.1,0,0.1-0.1,0.1-0.1l0.2-0.1l0.1-0.1c0.1-0.1,0.1-0.1,0.1-0.2c0-0.1,0.1-0.1,0.1-0.2l0.1-0.1
	c0-0.1,0.1-0.1,0.1-0.2c0-0.1,0.1-0.1,0.1-0.2c0-0.1,0-0.1,0.1-0.2s0-0.1,0-0.2l0,0c0-0.1,0-0.1,0-0.2s0-0.1,0-0.1s0-0.1,0-0.2
	l-2.7-34.7l7.6-3.8l2.2-1.1l5.3,48l-44.1,19.4l-0.4-11L202.2,211L202.2,211z M250.6,203.4L250.6,203.4l4.6,27.4l1.3,7.7L228,222.1
	l-8-4.7l-3.8-34.6l-1.4-12.3l34.2,23.6L250.6,203.4z M238.3,131.2l6.4,39.2l-7.1-5.3l-25.4-18.8l-4.6-40.2L238.3,131.2z
	 M203.1,104.8l4.7,41.6l-5.2,3.1l-5.5,3.3l-12.3-8.4l11.4-6.6c0.1,0,0.1-0.1,0.2-0.1c0.1-0.1,0.2-0.1,0.3-0.2
	c0.1-0.1,0.1-0.2,0.2-0.2c0.2-0.3,0.4-0.6,0.4-1c0,0,0-0.1,0-0.1s0-0.1,0-0.1s0-0.1,0-0.2l-2.1-25.8L203.1,104.8z M192.6,131.4
	l-25.2-18.5l-12.9-9.4V61.2L171.3,75l18.1,15L192.6,131.4z M188.2,73.5l-21.9-18.5L154.6,45V18.5l31.6,28.7L188.2,73.5z M150.3,18.5
	V45l-11.1,9.4l-22.6,19l2.1-26.3L150.3,18.5z M120.5,80.3l-2.9-2.1l34.8-29.4l34.8,29.4l-2.9,2.1L153.8,55c-0.2-0.1-0.3-0.2-0.4-0.3
	l0,0h-0.1l-0.2-0.1l0,0c-0.1,0-0.2-0.1-0.3-0.1h-0.2h-0.1h-0.1h-0.2c-0.1,0-0.2,0-0.3,0.1l0,0l-0.2,0h-0.1l0,0
	c-0.1,0-0.1,0.1-0.2,0.1c-0.1,0-0.2,0.1-0.3,0.2L120.5,80.3z M133.6,75l16.7-13.8v42.3l-12.9,9.4l-25.2,18.5l3.3-41.4L133.6,75z
	 M107.6,135.7c0,0,0,0.1,0,0.1s0,0.1,0,0.2s0,0.1,0,0.2s0,0.1,0,0.1s0,0.1,0,0.1c0,0.1,0.1,0.2,0.1,0.3c0,0.1,0,0.1,0.1,0.1v0.1
	c0.1,0.1,0.1,0.2,0.2,0.3c0,0,0.1,0.1,0.1,0.1l0,0c0.1,0.1,0.3,0.2,0.4,0.3l0,0l0,0l11.3,6.6l-12.3,8.4l-5.5-3.3l-5.1-3l4.7-41.6
	l7.9,5.1L107.6,135.7z M66.5,131.2l30.8-25.1l-4.6,40.2l-32.6,24L66.5,131.2z M90.1,170.5l-5.2,46.9l-36.6,21.2l6-35.1l0,0l1.6-9.4
	L90.1,170.5z M19.7,218.7l21.7-14.9l-0.9,5l-6.9,38.3l-23,13.3L19.7,218.7z M53.4,277.1l-40.6-13l11-6.4l12-6.9l41.4,14.9
	L53.4,277.1z M80.9,262.6l-10.8-3.9L38,247.1l3.4-19l4.6-25.8l3.8,1.9l-6.5,38c0,0.2,0,0.4,0,0.5l0,0c0,0,0,0.1,0,0.1
	c0,0.1,0,0.1,0,0.2c0,0.1,0,0.2,0.1,0.3c0,0.1,0.1,0.1,0.1,0.2l0.1,0.2c0,0.1,0.1,0.1,0.1,0.2c0.1,0.1,0.1,0.1,0.2,0.2
	c0,0.1,0.1,0.1,0.2,0.1l0.1,0.1l0,0c0.1,0,0.1,0.1,0.2,0.1c0.1,0.1,0.2,0.1,0.3,0.2l36.6,13.6L80.9,262.6z M92.7,258l-8.4-3.1l0,0
	l-33.9-12.6l28.5-16.4l8.2-4.7l43.2,19L92.7,258z M133.8,225.9l-0.4,11l-37-16.3l-7.2-3.1l5.3-48l9.8,4.9l-2.7,34.6c0,0,0,0.1,0,0.1
	s0,0.1,0,0.1s0,0.1,0,0.2s0,0.1,0,0.2s0,0.1,0,0.1c0,0.1,0.1,0.2,0.1,0.3c0,0.1,0.1,0.1,0.1,0.2l0.1,0.1c0,0.1,0.1,0.1,0.1,0.2
	c0.1,0.1,0.1,0.1,0.2,0.2l0.1,0.1l0.2,0.1c0,0,0.1,0.1,0.1,0.1h0.1l0.1,0.1l17.3,8.2L133.8,225.9z M152.4,230l-34.9-16.6l-9.3-4.4
	l31.4-18.6l12.7-7.5l12.9,7.6l31.4,18.6L152.4,230z M212.1,258l-37.5-17.9l43.2-19l36.6,21.1l-33.9,12.6l0,0L212.1,258z
	 M260.2,244.7c0.1,0,0.2-0.1,0.3-0.2c0.1,0,0.1,0,0.2-0.1l0,0l0.1-0.1c0.1,0,0.1-0.1,0.1-0.1l0,0c0.1-0.1,0.1-0.1,0.2-0.2
	c0-0.1,0.1-0.1,0.1-0.2l0.1-0.2c0-0.1,0.1-0.1,0.1-0.2c0-0.1,0.1-0.2,0.1-0.3c0-0.1,0-0.1,0-0.2c0,0,0-0.1,0-0.1l0,0
	c0-0.1,0-0.2,0-0.3c0-0.1,0-0.2,0-0.3l-6.5-38l3.8-1.9l4.6,25.8l3.4,19L224,262.6l-0.4-4.3L260.2,244.7z M251.5,277.1l-23.8-11.4
	l41.4-14.9l6,3.5l16.9,9.8L251.5,277.1z"/>
</svg>
