<?xml version="1.0" standalone="no"?>
<!DOCTYPE svg PUBLIC "-//W3C//DTD SVG 1.1//EN" "http://www.w3.org/Graphics/SVG/1.1/DTD/svg11.dtd" >
<svg xmlns="http://www.w3.org/2000/svg">
<metadata>Generated by IcoMoon</metadata>
<defs>
<font id="icomoon" horiz-adv-x="1024">
<font-face units-per-em="1024" ascent="960" descent="-64" />
<missing-glyph horiz-adv-x="1024" />
<glyph unicode="&#x20;" horiz-adv-x="512" d="" />
<glyph unicode="&#xe900;" glyph-name="icon-3dmax" horiz-adv-x="3072" d="M1093.239 310.033c24.303-8.243 47.292-11.281 73.762-11.281 60.314 0 118.886 26.897 118.886 91.546 0 36.881-29.065 60.314-64.649 65.075 34.714 8.67 58.999 31.676 58.999 68.557 0 55.535-52.924 73.318-103.697 73.318-26.027 0-51.2-4.335-75.486-12.578l2.611-35.584c20.821 8.67 45.551 13.875 66.389 13.875 31.232 0 63.778-9.984 63.778-42.957 0-37.751-29.935-49.459-70.281-49.459h-32.546v-32.546h38.178c34.714 0 68.983-10.411 68.983-47.292 0-39.919-33.417-56.405-71.595-56.405-22.135 0-48.589 3.908-70.724 13.022l-2.611-37.291zM1398.682 557.773h36.881c68.113 0 103.253-39.049 103.253-105.438 0-76.8-41.66-113.681-116.275-113.681h-23.859v219.119zM1427.319 303.514c95.454 0 160.956 48.162 160.956 148.821 0 95.010-54.665 140.578-147.951 140.578h-88.951v-289.382l75.947-0.017zM1633.399 310.46c24.73-8.243 51.627-11.708 74.189-11.708 55.535 0 100.215 26.897 100.215 85.914 0 45.124-26.897 62.908-61.167 78.967l-23.859 10.854c-21.265 10.411-40.346 20.821-40.346 44.681 0 32.102 27.767 42.513 52.070 42.513 19.524 0 41.66-3.465 60.314-11.708l2.611 38.178c-19.951 6.076-41.66 9.114-65.519 9.114-45.124 0-95.010-23.433-95.010-80.708 0-39.049 23.433-57.702 51.627-71.595l22.562-10.854c26.897-12.578 49.903-24.73 49.903-52.070 0-34.714-27.767-47.718-55.535-47.718-26.027 0-47.292 4.779-69.854 16.486l-2.202-40.346zM2029.961 303.514v255.556l95.454-255.539h42.957l95.010 255.539v-255.539h44.681v289.382h-71.595l-88.508-237.756-89.378 237.756h-71.151v-289.382l42.53-0.017zM2389.197 303.514l28.638 75.93h134.059l27.767-75.93h49.459l-113.681 289.382h-59.443l-112.811-289.382h46.012zM2485.077 559.497l55.108-145.34h-110.643l55.535 145.34zM2683.802 303.514l83.302 125.389 80.265-125.389h55.962l-105.421 151.415 96.324 137.967h-50.756l-72.892-111.497-73.762 111.497h-54.238l95.881-137.967-106.291-151.415h51.627zM403.132 650.325l139.349 133.615h-310.477l-58.197-132.847 229.325-0.768zM173.807 651.093l164.233-62.396 65.075 61.645zM402.825 563.422l-64.768 25.259-154.283-143.189 150.835-139.742 67.379 26.419 1.143 318.14zM403.132 650.325l307.046-200.994-167.68 334.609zM710.178 449.348l-307.354 114.091zM401.988 332.186l-0.768-88.439zM542.874 112.060l-208.265 193.707-161.946-60.86 58.965-132.847h311.245zM542.874 112.060l167.305 337.289-308.958-205.602zM710.178 449.348l-308.19-117.146zM402.825 563.422l307.354-114.074-307.046 200.977-0.307-86.903zM710.178 449.348l-308.19-117.163-0.768-88.371 0.034-0.034 308.924 205.568zM403.132 650.325l307.046-200.977-167.697 334.592-139.349-133.615zM710.178 449.348l-308.924-205.568 141.619-131.721 167.305 337.289zM401.988 332.186l308.19 117.163-307.354 114.074-0.836-231.236zM401.988 332.186l0.836 231.236-64.768 25.276-154.283-143.189 150.835-139.742 67.379 26.419zM338.057 588.698l64.768-25.276 0.307 86.903-65.075-61.628zM401.988 332.186l-67.379-26.419 66.611-61.952 0.768 88.371zM401.22 243.746l-228.557 1.161 58.965-132.847h311.245l-141.653 131.686zM173.807 651.093l229.325-0.768 139.349 133.615h-310.477l-58.197-132.847zM403.132 650.325l-229.325 0.768 164.25-62.396 65.075 61.628zM334.609 305.766l-161.946-60.86 228.557-1.092-66.611 61.952z" />
<glyph unicode="&#xe901;" glyph-name="icon-adobe" horiz-adv-x="3072" d="M2305.911 194.748c-1.655-18.517-3.311-37.018-5.018-55.979-25.088 0-49.357 0-72.789 0 0 214.818 0 429.568 0 644.932 30.566 0 58.88 0 88.491 0 0-80.555 0-160.683 0-240.811 0.768-0.273 1.519-0.546 2.287-0.819 2.202 3.072 4.591 6.025 6.605 9.216 38.383 60.843 128 67.14 171.913 0.427 21.026-31.932 31.59-67.482 36.898-104.755 9.335-65.502 8.055-130.611-9.899-194.731-8.141-29.099-20.48-56.354-40.499-79.411-28.894-33.28-64.614-48.708-108.851-39.168-28.279 6.093-45.722 25.771-59.341 49.681-2.27 3.994-4.506 8.004-6.758 12.015-1.007-0.205-2.031-0.41-3.038-0.597zM2315.691 364.885c0.614-0.017 1.246-0.034 1.86-0.051 0-25.907-1.297-51.883 0.375-77.687 1.536-23.518 9.574-45.705 25.020-64.085 21.572-25.685 57.6-25.088 77.056 2.287 8.789 12.373 15.838 27.017 19.678 41.694 14.797 56.286 14.831 113.425 5.649 170.633-3.721 23.159-10.24 45.483-24.969 64.478-21.35 27.563-55.040 28.518-77.892 2.167-11.895-13.722-20.651-29.662-22.255-47.548-2.679-30.532-3.123-61.252-4.523-91.887zM1720.934 783.77c30.208 0 58.231 0 88.934 0 0-214.716 0-429.261 0-644.659-22.255 0-46.865 0-72.516 0-1.946 17.647-3.925 35.499-6.161 55.876-3.072-4.403-4.813-6.605-6.229-8.994-41.114-68.966-128.068-74.53-177.357-11.127-23.535 30.276-35.379 65.621-41.66 102.844-11.844 70.229-11.366 140.1 9.796 208.759 9.95 32.256 25.566 61.491 51.217 84.361 25.225 22.494 54.699 32.051 88.218 27.068 24.73-3.669 44.1-16.401 57.6-37.649 2.15-3.379 4.164-6.844 8.175-9.984-0.017 77.397-0.017 154.795-0.017 233.506zM1720.388 365.978c0.341 0 0.666 0 1.007 0 0 20.719 0.171 41.438-0.051 62.157-0.29 27.153-5.137 53.111-22.647 74.991-21.811 27.273-57.31 27.648-78.933 0.171-7.39-9.404-13.67-20.531-17.34-31.881-20.002-62.020-19.302-125.201-7.663-188.587 3.755-20.48 10.513-40.107 23.433-56.917 22.357-29.065 59.068-28.928 80.879 0.529 12.083 16.333 20.275 34.833 21.026 55.211 1.075 28.092 0.29 56.235 0.29 84.326zM1481.506 138.223c-28.109 0-55.074-0.188-82.022 0.358-2.185 0.051-5.513 5.001-6.178 8.141-11.179 51.678-22.238 103.373-32.683 155.204-1.604 7.987-4.506 10.018-12.237 9.95-37.018-0.393-74.052-0.358-111.070-0.017-7.27 0.068-10.001-1.98-11.537-9.353-10.496-50.688-21.572-101.239-32.495-151.842-0.853-3.925-1.86-7.817-2.884-12.032-28.399 0-56.439 0-85.521 0 47.241 209.647 94.345 418.697 141.5 627.985 34.287 0 67.823 0 101.922 0 44.373-209.357 88.661-418.287 133.205-628.395zM1294.165 675.857c-18.398-98.133-36.591-195.311-54.921-293.103 35.772 0 71.475 0 107.759 0-17.664 97.929-35.191 195.191-52.838 293.103zM2176.99 365.687c-0.683-48.572-6.042-96.222-26.317-140.902-21.282-46.899-54.255-81.647-106.906-91.238-54.494-9.933-100.25 6.827-134.468 51.2-23.859 30.959-35.465 67.191-41.335 105.267-9.762 63.266-9.182 126.242 9.984 187.904 14.421 46.37 39.134 85.504 84.548 107.657 60.365 29.44 129.724 11.486 168.704-43.196 25.873-36.318 36.949-77.875 41.984-121.327 2.133-18.364 2.594-36.915 3.806-55.364zM2088.055 364.015c-1.963 23.586-3.157 47.258-6.11 70.724-3.106 24.661-8.926 48.845-22.34 70.315-20.565 32.922-59.682 34.15-81.169 1.86-7.236-10.871-12.766-23.569-16.111-36.215-16.725-63.351-15.957-127.42-5.137-191.556 3.584-21.282 9.933-41.882 23.433-59.273 21.879-28.16 59.017-26.709 78.268 3.157 5.154 7.987 9.233 16.93 12.356 25.924 12.937 37.205 15.087 75.981 16.811 115.063zM869.751 146.176c-85.828 205.636-171.674 411.273-257.98 618.052 87.125 0 172.8 0 259.482 0 0-205.978 0-411.904 0-617.847-0.512-0.068-1.007-0.137-1.502-0.205zM165.086 146.142c0 205.739 0 411.477 0 618.018 86.426 0 172.407 0 260.045 0-86.34-206.694-172.322-412.535-258.304-618.359-0.58 0.119-1.161 0.239-1.741 0.341zM2882.099 346.914c-71.492 0-141.67 0-213.009 0 1.178-37.308 4.113-73.216 24.388-105.062 15.36-24.132 38.076-36.676 66.27-39.253 31.505-2.867 61.815 2.594 92.126 15.514 4.437-21.316 8.687-41.762 13.585-65.417-20.719-5.274-40.704-11.588-61.167-15.292-31.181-5.649-62.686-6.246-93.73 1.587-56.883 14.353-92.433 52.429-109.653 106.377-27.085 84.941-25.19 170.206 8.448 253.218 18.671 46.063 49.886 81.271 99.84 95.59 57.583 16.521 111.65-5.205 142.012-56.764 19.405-32.956 28.092-69.257 30.515-106.82 1.792-27.511 0.375-55.228 0.375-83.678zM2800.23 410.385c0.597 32.768-2.372 64.205-18.278 92.809-21.76 39.151-62.259 40.004-86.374 2.27-12.578-19.678-18.551-41.745-22.135-64.495-1.57-9.967-2.15-20.105-3.226-30.583 44.339 0 86.682 0 130.014 0zM404.668 264.977c38.144 89.941 75.435 177.92 113.801 268.407 55.825-132.574 110.643-262.724 165.922-393.967-36.352 0-71.595 0-108.254 0-7.97 19.951-16.299 40.755-24.559 61.594-7.083 17.869-14.507 35.601-20.924 53.709-2.816 7.936-6.861 10.581-15.223 10.462-32.205-0.478-64.41-0.188-96.614-0.188-4.045-0.017-8.090-0.017-14.148-0.017zM906.667 725.146c-10.974 0.205-20.173 10.052-19.678 21.043 0.478 10.803 9.37 19.166 20.258 19.063 11.452-0.102 19.883-9.114 19.439-20.736-0.427-10.889-9.404-19.575-20.019-19.371zM922.914 745.028c0.171 9.728-7.031 17.51-16.043 17.391-8.533-0.119-15.616-7.578-15.804-16.64-0.205-9.728 6.878-17.271 16.162-17.203 8.926 0.085 15.514 6.997 15.684 16.452zM2876.314 600.32c10.752-0.085 19.285-8.806 19.439-19.831 0.154-11.639-8.482-20.429-19.934-20.275-10.786 0.137-19.541 8.875-19.729 19.678-0.188 11.127 9.114 20.531 20.224 20.429zM2876.484 597.094c-8.755 0.188-15.923-6.81-16.384-15.991-0.461-9.472 6.622-17.613 15.65-17.937 8.499-0.307 15.804 6.929 16.247 16.094 0.478 9.796-6.349 17.647-15.514 17.835zM905.54 745.557c-1.877-5.495-2.833-8.26-3.789-11.025-0.478 0.102-0.956 0.222-1.434 0.324 0 6.758 0 13.534 0 21.077 7.407-0.529 17.63 4.164 12.817-10.769-0.939-2.918 1.195-6.81 0.512-11.008-2.15 3.055-4.318 6.093-8.107 11.401zM2869.453 570.436c0 6.724 0 13.449 0 21.077 7.322-1.297 18.108 3.26 12.561-11.537-0.99-2.628 1.331-6.502 0.597-10.633-2.185 3.021-4.386 6.025-7.595 10.462-1.826-4.233-2.97-6.912-4.113-9.574-0.495 0.051-0.973 0.119-1.451 0.205z" />
<glyph unicode="&#xe902;" glyph-name="icon-autodesk" horiz-adv-x="3072" d="M1820.689 339.388c0 88.422 0 177.237 0 269.585 61.662-3.669 124.262 11.844 181.419-23.876 47.121-29.457 69.564-83.285 58.351-142.609-9.37-49.562-56.986-97.826-108.032-102.315-43.332-3.823-87.279-0.785-131.738-0.785zM1869.636 565.879c0-63.795 0-124.109 0-184.9 24.235 0 47.582-2.85 69.973 0.597 45.841 7.049 76.749 46.387 75.913 91.836-0.887 47.377-30.327 81.783-78.336 88.798-21.265 3.072-43.059 2.458-67.55 3.669zM1482.411 474.709c2.935 78.046 68.301 141.244 143.206 138.462 77.773-2.884 142.217-68.779 138.121-143.343-4.71-86.067-68.079-138.957-143.104-137.933-78.711 1.092-141.039 68.113-138.223 142.814zM1530.163 475.324c-1.638-53.777 38.042-98.133 89.719-100.198 51.046-2.048 93.815 39.97 95.881 94.157 2.014 53.163-38.656 98.475-89.805 100.062-51.541 1.621-94.174-40.209-95.795-94.020zM2306.953 381.218c0-16.469 0-29.184 0-43.127-64.461 0-127.778 0-192.939 0 0 89.873 0 179.661 0 270.814 64.119 0 127.966 0 192.922 0 0-13.824 0-26.556 0-41.626-47.223 0-94.566 0-143.838 0 0-24.064 0-45.909 0-70.588 30.020 0 59.955 0 91.204 0 0-15.343 0-27.887 0-42.769-30.481 0-60.467 0-91.785 0 0-25.003 0-47.718 0-72.704 48.077 0 95.403 0 144.435 0zM2703.514 481.809c37.137 40.414 80.794 87.842 120.9 131.465h-62.31l-118.050-122.641c0 41.165 0 81.271 0 122.453-16.213 0-30.396 0-46.285 0 0-91.443 0-181.299 0-271.104 16.043 0 30.208 0 47.206 0 0 44.646 0 88.081 0 135.97 0 0 84.873-86.596 128.973-136.107h63.881c-43.383 45.244-97.195 101.171-134.315 139.964zM823.945 613.274l-45.773-0.495-119.791-272.708h52.241l26.846 65.246h126.601l27.87-65.246h51.814l-119.808 273.203zM755.115 448.188l44.493 108.1 46.165-108.1h-90.658zM1252.54 571.392h86.682v-230.349h44.8v229.854h71.578l18.364 42.377h-221.423zM2455.125 497.783c-63.42 17.92-56.098 45.022-52.77 52.651s14.029 21.060 54.63 21.060c40.602 0 69.018-16.691 69.018-16.691l17.715 35.942c-1.109 1.809-33.587 21.419-87.467 22.511s-101.495-29.781-101.495-72.619c0-42.837 25.993-63.181 77.141-78.063 57.924-16.845 75.657-31.59 75.657-53.009s-11.878-37.035-53.965-37.035c-35.942 0-79.411 28.331-90.163 36.489l-16.998-36.233c13.926-9.216 65.126-38.383 110.182-38.383 50.927 0 93.747 25.054 95.215 76.971 1.485 51.917-39.031 70.11-96.7 86.409zM1149.372 451.328c0-37.513-30.413-67.925-67.925-67.925s-67.925 30.413-67.925 67.925v161.946h-50.381v-157.935c0-65.331 52.958-118.306 118.306-118.306 65.331 0 118.306 52.958 118.306 118.306v157.935h-50.381v-161.946zM2897.169 358.861c0-9.677-7.595-17.271-17.493-17.271-9.779 0-17.596 7.595-17.596 17.271 0 9.472 7.817 17.084 17.596 17.084 9.882 0 17.493-7.612 17.493-17.084zM2866.449 358.861c0-7.595 5.615-13.636 13.329-13.636 7.492 0 13.022 6.042 13.022 13.534 0 7.612-5.513 13.756-13.124 13.756-7.612-0.017-13.227-6.161-13.227-13.653zM2876.962 349.901h-3.959v17.084c1.57 0.307 3.755 0.512 6.571 0.512 3.226 0 4.676-0.512 5.939-1.246 0.939-0.734 1.673-2.082 1.673-3.755 0-1.877-1.451-3.328-3.533-3.959v-0.205c1.655-0.631 2.594-1.877 3.123-4.164 0.512-2.594 0.836-3.635 1.246-4.267h-4.267c-0.529 0.631-0.836 2.185-1.348 4.164-0.324 1.877-1.348 2.714-3.55 2.714h-1.877v-6.878zM2877.065 359.595h1.877c2.185 0 3.959 0.734 3.959 2.492 0 1.57-1.143 2.611-3.635 2.611-1.041 0-1.775-0.102-2.185-0.205v-4.898zM312.132 685.278c-11.742-0.683-16.555-7.373-17.169-8.311-0.051-0.085-0.085-0.119-0.068-0.119v0l-126.123-299.776c-0.068-0.29-0.205-0.666-0.375-1.143-2.816-7.543-2.27-13.875 0.085-19.012l1.417-2.611c5.444-8.67 16.179-13.124 22.579-13.141 4.932 0 43.759 0 91.273 0l95.744 225.314c-24.235 57.395-42.479 100.318-45.107 105.865-5.188 10.854-15.65 13.329-22.255 12.937zM192.461 341.163c-6.4 0.017-17.135 4.471-22.579 13.141l64.444-119.245c6.366-11.418 22.374-12.698 22.374-12.698 16.572-1.126 47.241 14.268 53.282 17.749 5.837 3.362 145.493 89.532 164.164 101.052-19.678 0-115.763 0-190.413 0-47.514 0-86.34 0-91.273 0zM169.899 354.321l-1.417 2.611c0.41-0.922 0.887-1.792 1.417-2.611zM294.878 676.83l0.017 0.017zM294.895 676.847v0 0zM294.963 676.966l-0.068-0.119zM464.196 675.123c0 0-3.516 11.605-19.405 11.554 0 0-22.033 0.068-48.196 0.137-36.881 0.068-81.937 0.119-84.975-0.137-7.919-0.683-14.37-5.973-16.657-9.694 0.614 0.939 5.427 7.629 17.169 8.311 6.605 0.393 17.067-2.082 22.238-12.937 2.628-5.53 20.855-48.452 45.107-105.865 52.907-125.235 134.417-319.403 144.998-344.61h130.953l-191.232 453.239z" />
<glyph unicode="&#xe903;" glyph-name="icon-blender" horiz-adv-x="3072" d="M1407.164 255.437h74.069c0.358 0 0.358 0 0.358 0.358v310.579c0 0.358 0 0.358-0.358 0.358h-74.069c-0.358 0-0.358 0-0.358-0.358v-310.596c0-0.341 0-0.341 0.358-0.341v0zM1991.134 507.699c-46.507 0-72.277-13.602-105.199-40.789 0 0-0.358 0.358-0.358 0 0 2.509 1.075 18.961-2.15 18.961-20.395 0-50.807 0.717-72.636 0v-229.359c28.262-0.358 74.786 0 74.786 0 0.358 44.373 0.358 94.464 0.358 141.687 2.867 20.036 22.903 50.091 74.428 50.091 36.506 2.867 45.090-25.771 45.090-57.975 0-35.772 0-87.313 0-133.82h74.428c0 20.036 7.868 140.988-2.867 186.778-12.885 57.276-69.41 63.71-85.879 64.427v0zM1089.417 587.486v0-331.332h76.578v21.111c23.62-15.036 52.241-23.62 83.371-23.62 77.653 0 140.988 56.542 140.988 125.594 0 69.069-63.334 125.594-140.988 125.594-31.13 0-59.75-8.96-83.371-23.979v85.879l-76.578 20.753zM1237.914 446.874c40.073 0 72.277-30.771 72.277-69.427 0-37.922-32.205-69.41-72.277-69.41-39.356 0-71.561 31.488-71.561 69.41 0 38.656 32.205 69.427 71.561 69.427v0zM2397.986 587.486v0-331.332h-78.729l0.358 20.753c-23.262-14.677-51.883-23.262-82.295-23.262-77.653 0-140.988 56.542-140.988 125.594 0 69.069 63.334 125.594 140.988 125.594 31.13 0 59.75-9.301 83.012-24.337l0.358 86.238 77.295 20.753zM2248.772 446.874c-39.356 0-71.561-30.771-71.561-69.427 0-37.922 32.205-69.41 71.561-69.41 40.073 0 72.277 31.488 72.277 69.41 0 38.656-32.205 69.427-72.277 69.427v0zM2702.848 363.503c-0.717 88.73-35.43 149.931-152.439 145.63-92.314-2.15-139.554-49.732-137.762-136.687 7.509-85.163 54.75-110.217 133.103-121.651 67.635-2.509 115.217 20.753 131.328 52.958-17.527 12.527-39.356 23.62-56.542 35.772-18.961-26.47-35.772-40.431-64.41-36.13-50.091 7.509-58.334 31.488-60.109 59.75 66.918 0 140.271 0.358 206.831 0.358v0zM2499.243 412.518c4.301 25.771 18.603 47.223 59.409 50.091 36.506 0 59.392-22.187 59.392-50.091 0 0-121.668 0-118.801 0v0zM1790.396 363.503c-0.717 88.73-35.43 149.931-152.439 145.63-92.314-2.15-139.554-49.732-137.762-136.687 7.509-85.163 54.75-110.217 133.12-121.651 67.635-2.509 115.217 20.753 131.311 52.958-18.244 11.81-38.639 24.337-56.525 35.772-18.961-26.47-35.789-40.431-64.41-36.13-50.108 7.509-58.334 31.488-60.109 59.75 66.901 0 140.254 0.358 206.814 0.358v0zM1586.79 412.518c4.301 25.771 18.603 47.223 59.392 50.091 36.506 0 59.392-22.187 59.392-50.091 0.017 0-121.634 0-118.784 0v0zM2730.752 256.154h70.844c1.434 0 2.15 0 2.15 0.717v140.629c16.828 33.28 45.090 40.431 86.955 38.639l-0.358 64.051c-49.033-1.792-63.334-6.076-86.596-31.488v17.169c0 0.717-0.717 0.717-2.15 0.717h-70.844c-1.434 0-2.15 0-2.15-0.717v-229.001c0-0.717 0.717-0.717 2.15-0.717v0zM696.883 658.347h-363.895c-65.485-5.001-55.108-92.314-6.793-91.597 44.732 0.717 119.876 0 173.193 0-76.578-72.277-247.62-181.777-322.406-252.979-28.979-27.546-27.204-107.708 56.9-89.105 31.846 17.527 175.684 134.895 195.379 154.931 10.018-249.412 290.543-366.404 501.316-220.058 111.991 78.012 150.647 275.524 62.976 372.855-69.069 77.295-195.021 154.573-345.651 280.183-23.979 19.678-95.898 9.66-71.561-49.033-0.034 0 64.017-64.051 120.542-105.199v0zM733.747 570.675c103.765 0 188.928-76.578 188.928-169.609 0-93.747-85.163-169.609-188.928-169.609-104.482 0-188.928 75.861-188.928 169.609 0 93.030 84.446 169.609 188.928 169.609v0zM740.369 515.925c64.546 0 117.18-49.579 117.18-110.387s-52.651-110.387-117.18-110.387-117.197 49.596-117.197 110.387c0 60.809 52.651 110.387 117.197 110.387v0z" />
<glyph unicode="&#xe904;" glyph-name="email" d="M512 960c-282.307 0-512-229.693-512-512 0-282.331 229.693-512 512-512 104.375 0 204.459 30.818 289.451 89.161l-82.798 120.613c-60.514-41.545-131.974-63.488-206.653-63.488-201.655 0-365.714 164.059-365.714 365.714s164.059 365.714 365.714 365.714c201.655 0 365.714-164.059 365.714-365.714v-38.156c0-31.305-6.973-83.749-53.638-83.749h-19.456c-14.263 0.512-43.008 28.355-43.934 42.374v79.531h-0.024c0 137.143-111.567 248.661-248.686 248.661-137.094 0-248.637-111.518-248.637-248.661s111.543-248.686 248.637-248.686c57.125 0 109.178 20.163 151.211 52.638 36.669-42.228 89.015-72.143 141.385-72.143h19.505c117.711 0 199.924 94.598 199.924 230.034v38.156c0 282.307-229.693 512-512 512zM511.976 345.6c-56.418 0-102.351 45.958-102.351 102.4 0 56.418 45.934 102.376 102.351 102.376 56.466 0 102.4-45.958 102.4-102.376 0-56.442-45.934-102.4-102.4-102.4z" />
<glyph unicode="&#xe905;" glyph-name="facebook" horiz-adv-x="597" d="M377.984-64v467.115h156.715l23.509 182.101h-180.224v116.224c0 52.693 14.592 88.619 90.24 88.619l96.341 0.043v162.859c-16.683 2.176-73.856 7.125-140.416 7.125-139.008 0-234.155-84.864-234.155-240.64v-134.272h-157.227v-182.101h157.184v-467.072h188.032z" />
<glyph unicode="&#xe906;" glyph-name="computer" horiz-adv-x="1123" d="M1022.348 936.877h-924.903c-51.002 0-92.49-41.489-92.49-92.49v-601.187c0-50.969 41.489-92.49 92.49-92.49h416.206v-92.49h-184.981v-92.49h462.452v92.49h-184.981v92.49h416.206c51.002 0 92.49 41.522 92.49 92.49v601.187c0 51.002-41.489 92.49-92.49 92.49zM1022.348 844.387l-0.099-462.452h-924.804v462.452h924.903zM97.445 243.2v46.245h924.771v-46.245h-924.771z" />
<glyph unicode="&#xe907;" glyph-name="location" horiz-adv-x="614" d="M614.4 652.8c0 169.677-137.549 307.2-307.2 307.2s-307.2-137.523-307.2-307.2c0-204.8 307.2-563.2 307.2-563.2s307.2 358.4 307.2 563.2zM179.2 652.8c0 70.682 57.318 128 128 128s128-57.318 128-128c0-70.656-57.318-128-128-128s-128 57.344-128 128zM102.4-64h409.6v102.4h-409.6v-102.4z" />
<glyph unicode="&#xe908;" glyph-name="wallet" d="M969.269 557.462h-49.434v98.869c0 54.519-44.35 98.869-98.869 98.869h-18.891l-85.204 170.408c-11.476 22.987-38.7 33.333-62.57 23.799l-485.553-194.207h-39.865c-54.519 0-98.869-44.35-98.869-98.869v-593.214c0-54.519 44.35-98.869 98.869-98.869h692.083c54.519 0 98.869 44.35 98.869 98.869v98.869h49.434c27.295 0 49.434 22.14 49.434 49.434v296.607c0 27.295-22.14 49.434-49.434 49.434zM648.792 840.722l42.726-85.522h-256.494l213.769 85.522zM820.824 63.117h-691.942v593.214h692.083l-0.035-98.869h-148.268c-13.1 0-25.671-5.226-34.957-14.513l-148.303-148.303c-19.315-19.279-19.315-50.564 0-69.914l148.303-148.303c9.287-9.216 21.857-14.477 34.957-14.477h148.198l-0.035-98.834zM919.834 260.855h-226.692l-98.869 98.869 98.869 98.869h226.692v-197.738z" />
<glyph unicode="&#xe909;" d="M512 860.92c227.675 0 412.903-185.228 412.903-412.903s-185.228-412.92-412.903-412.92c-227.675 0-412.903 185.228-412.903 412.903s185.228 412.92 412.903 412.92zM512 893.952c-246.289 0-445.935-199.647-445.935-445.935s199.647-445.935 445.935-445.935c246.289 0 445.935 199.647 445.935 445.935s-199.647 445.935-445.935 445.935v0z" />
<glyph unicode="&#xe90a;" d="M653.378 440.749c-4.823 4.839-11.165 7.251-17.507 7.251s-12.684-2.428-17.507-7.251l-81.573-81.59v237.502c0 13.675-11.099 24.774-24.774 24.774s-24.774-11.099-24.774-24.774v-237.485l-81.59 81.59c-9.662 9.695-25.352 9.662-35.031 0-9.695-9.662-9.695-25.336 0-35.031l123.871-123.871c9.662-9.678 25.369-9.678 35.031 0l123.871 123.871c9.678 9.645 9.678 25.319-0.017 35.014z" />
<glyph unicode="&#xe90b;" glyph-name="flag" d="M512 887.467c242.325 0 439.467-197.141 439.467-439.467s-197.141-439.467-439.467-439.467c-242.325 0-439.467 197.141-439.467 439.467s197.141 439.467 439.467 439.467zM512 908.8c-254.496 0-460.8-206.304-460.8-460.8s206.304-460.8 460.8-460.8c254.496 0 460.8 206.304 460.8 460.8s-206.304 460.8-460.8 460.8v0zM373.333 640c11.787 0 21.333-9.557 21.333-21.333v-18.773c22.613 9.387 53.333 18.773 85.333 18.773 64 0 64-42.667 106.667-42.667 64 0 85.333 42.667 85.333 42.667v-170.667c0 0-21.333-42.667-85.333-42.667s-64 42.667-106.667 42.667c-64 0-85.333-42.667-85.333-42.667v-149.333h-42.667v362.667c0 11.787 9.547 21.333 21.333 21.333z" />
<glyph unicode="&#xe90c;" glyph-name="phone" horiz-adv-x="658" d="M559.348 174.373h-477.086v636.123h477.086zM411.672 38.083h-181.736v45.422h181.736zM502.565 946.81h-363.496c-75.288 0-136.314-61.026-136.314-136.314v-726.991c0-75.288 61.026-136.314 136.314-136.314h363.496c75.288 0 136.314 61.026 136.314 136.314v726.991c-0.024 75.288-61.050 136.314-136.314 136.314z" />
<glyph unicode="&#xe90d;" glyph-name="team" d="M512 887.467c242.325 0 439.467-197.141 439.467-439.467s-197.141-439.467-439.467-439.467c-242.325 0-439.467 197.141-439.467 439.467s197.141 439.467 439.467 439.467zM512 908.8c-254.496 0-460.8-206.304-460.8-460.8s206.304-460.8 460.8-460.8c254.496 0 460.8 206.304 460.8 460.8s-206.304 460.8-460.8 460.8v0zM512 640c53.024 0 96-42.976 96-96 0-53.013-42.987-96-96-96s-96 42.987-96 96c0 53.024 42.987 96 96 96zM512 400c106.080 0 192-42.955 192-96v-48h-384v48c0 53.045 85.92 96 192 96z" />
<glyph unicode="&#xe90e;" glyph-name="icon-sketchup" horiz-adv-x="3072" d="M526.797 745.95c13.175-10.581 26.249-21.299 39.561-31.71 47.138-36.864 94.327-73.66 141.636-110.319 3.857-2.987 4.54-5.837 3.925-10.462-2.85-21.521-5.257-43.093-7.799-64.649-2.492-21.111-4.949-42.206-7.441-63.317-2.543-21.555-5.12-43.11-7.697-64.666s-5.188-43.093-7.731-64.649c-2.509-21.333-5.137-42.667-7.339-64.034-1.109-10.701-0.717-10.786-11.008-13.705-123.785-35.106-247.586-70.195-371.388-105.267-0.427-0.119-0.905-0.017-2.082-0.017-5.12 15.753-10.359 31.71-15.497 47.718-19.029 59.324-38.417 118.545-56.747 178.091-4.864 15.804-6.673 32.563-9.489 48.947-5.854 33.963-11.418 67.977-17.135 101.973-5.751 34.202-11.554 68.403-17.34 102.605-3.686 21.794-7.356 43.605-11.179 66.27 10.223 1.434 20.105 2.884 30.003 4.181 27.409 3.601 54.801 7.168 82.227 10.667 26.505 3.396 53.043 6.656 79.548 10.069 26.726 3.447 53.436 7.066 80.162 10.53 22.886 2.97 45.79 5.751 68.659 8.755 5.342 0.7 10.598 1.963 15.889 2.97 2.765 0.017 5.513 0.017 8.26 0.017zM200.875 670.14c6.468-15.36 12.715-29.577 18.364-44.015 1.946-4.949 4.471-6.485 9.626-5.7 26.266 3.977 52.565 7.697 78.865 11.537 45.551 6.656 91.102 13.295 136.619 20.053 4.796 0.717 8.021-0.768 11.383-4.284 24.115-25.19 48.469-50.142 72.687-75.247 2.867-2.987 5.376-4.454 10.069-3.567 29.696 5.564 59.494 10.598 89.259 15.855 12.902 2.287 25.771 4.727 40.363 7.407-3.362 2.679-5.274 4.233-7.202 5.751-43.947 34.27-88.047 68.369-131.755 102.963-8.533 6.741-16.282 10.223-27.802 8.448-37.12-5.7-74.462-9.95-111.718-14.763-37.478-4.83-74.974-9.66-112.452-14.507-24.986-3.226-49.937-6.485-76.305-9.933zM237.346 524.134c6.997-18.466 13.585-36.25 20.651-53.845 0.529-1.314 4.523-2.202 6.622-1.809 35.106 6.571 70.178 13.278 105.199 20.292 4.198 0.836 6.127 0.051 8.158-3.55 8.021-14.165 16.469-28.075 24.457-42.257 2.219-3.942 4.642-4.71 8.892-3.789 29.747 6.468 59.546 12.663 89.327 19.012 10.189 2.167 20.343 4.489 31.334 6.912-1.843 2.56-2.935 4.267-4.181 5.82-23.211 28.723-46.524 57.378-69.564 86.221-3.209 4.011-6.263 4.813-11.145 3.942-53.641-9.574-107.315-18.91-160.99-28.331-16.009-2.799-31.966-5.649-48.759-8.619zM295.714 302.575c39.509 9.796 78.182 19.405 117.504 29.15-9.455 18.534-18.398 35.823-27.085 53.214-1.877 3.772-4.284 2.953-7.373 2.253-33.246-7.595-66.526-15.053-99.789-22.613-1.263-0.29-2.423-1.075-4.045-1.826 6.878-19.917 13.67-39.561 20.787-60.177zM2299.102 622.353c30.020 0 59.255 0 89.225 0 0-3.43 0-6.349 0-9.284 0-67.908-0.256-135.799 0.222-203.708 0.085-12.885 1.69-26.146 5.137-38.537 9.421-33.843 38.332-44.151 68.011-40.26 35.072 4.591 50.176 31.59 50.551 63.283 0.853 73.165 0.393 146.347 0.478 219.529 0.017 9.421 0 9.438 9.182 9.438 24.32 0 48.64-0.171 72.943 0.119 5.82 0.068 7.373-1.877 7.339-7.492-0.358-75.93 1.075-151.893-1.263-227.755-1.911-62.037-38.229-113.22-107.878-127.522-37.205-7.646-74.206-6.741-110.114 6.588-44.971 16.691-70.502 50.244-79.462 96.478-3.055 15.838-4.096 32.273-4.198 48.435-0.444 67.209-0.188 134.417-0.188 201.643 0.017 2.714 0.017 5.461 0.017 9.045zM1024.751 529.903c-15.258 6.4-29.884 13.5-45.158 18.722-20.412 6.98-41.455 11.639-63.283 7.543-12.066-2.27-23.159-7.287-25.754-20.446-2.594-13.141-2.065-24.030 13.705-32.768 15.923-8.823 32.853-15.906 49.715-22.869 22.886-9.455 45.705-18.79 65.638-33.911 28.535-21.641 37.53-51.268 35.226-85.504-1.399-20.634-6.571-40.090-18.944-57.156-16.759-23.108-40.209-35.482-67.277-41.813-23.654-5.53-47.616-5.137-71.697-3.191-30.345 2.458-59.341 9.95-87.501 21.282-4.164 1.673-6.144 3.601-5.513 8.516 2.953 22.665 5.547 45.363 8.294 68.045 0.068 0.631 0.427 1.229 0.956 2.645 2.748-1.331 5.342-2.577 7.902-3.84 27.187-13.466 55.484-23.689 85.692-27.631 14.524-1.894 29.184-2.935 43.469 2.338 11.725 4.335 19.405 12.237 21.197 24.678 1.741 12.117-1.246 23.467-11.913 30.276-11.11 7.1-22.989 13.193-35.089 18.466-25.737 11.247-52.531 20.087-76.322 35.618-27.477 17.954-41.097 42.957-41.813 75.861-0.717 32.683 8.243 61.013 33.502 82.842 17.647 15.241 38.656 23.74 61.457 26.692 43.196 5.598 85.299 0.99 125.73-16.213 5.615-2.389 6.827-5.513 6.127-10.906-2.867-22.443-5.581-44.902-8.346-67.277zM2651.87 156.57c0 120.542 0 240.196 0 360.243 22.528 0 44.681 0 67.755 0 1.894-10.462 3.84-21.111 5.939-32.7 7.39 6.588 13.892 12.868 20.89 18.551 34.082 27.682 81.801 26.607 112.247-2.594 17.391-16.691 26.112-38.161 30.037-61.218 5.973-35.055 6.007-70.246-5.069-104.533-12.339-38.195-36.42-64.751-76.954-73.353-23.057-4.898-45.926-2.185-68.437 4.215-2.185 0.631-4.403 1.178-6.622 1.69-0.393 0.085-0.87-0.188-2.15-0.495 0-2.253 0-4.71 0-7.151 0-24.781-0.102-49.545 0.102-74.325 0.034-4.54-0.922-6.81-5.769-8.124-23.791-6.4-47.428-13.261-71.97-20.207zM2815.351 390.11c-1.348 18.039-4.079 32.188-9.609 42.906-8.294 16.077-23.023 22.767-40.653 18.722-13.431-3.089-23.142-11.674-31.812-21.555-2.15-2.458-3.601-6.383-3.652-9.66-0.307-24.064-0.171-48.128-0.171-72.209 0-23.074-0.119-23.927 22.938-27.358 24.713-3.686 45.858 0.119 56.149 32.99 3.669 11.622 4.625 24.081 6.81 36.164zM2248.926 261.837c-26.573 0-52.412 0-79.258 0 0 2.765 0 5.41 0 8.055 0 51.849 0.034 103.714-0.034 155.563-0.017 14.711-8.021 26.368-20.036 27.119-7.97 0.495-16.179-1.587-24.149-3.123-2.987-0.58-5.649-2.901-8.448-4.454-12.937-7.151-19.115-16.538-18.637-32.887 1.382-47.223 0.495-94.515 0.495-141.79 0-2.697 0-5.376 0-8.465-26.078 0-51.456 0-77.67 0-0.119 2.372-0.341 4.796-0.341 7.219-0.017 108.066-0.017 216.149-0.017 324.215 0 3.874-0.495 7.185 5.052 8.653 23.381 6.212 46.575 13.056 69.854 19.644 0.631 0.171 1.348 0.017 2.799 0.017 0-44.902 0-89.702 0-136.653 3.226 2.714 5.018 4.147 6.707 5.666 15.104 13.67 31.488 25.088 51.797 29.764 17.698 4.079 35.157 3.157 51.831-3.755 25.19-10.445 36.642-31.471 38.434-57.19 1.86-26.726 1.434-53.606 1.587-80.435 0.188-38.741 0.034-77.517 0.034-117.163zM1172.446 622.063c0-69.99 0-139.145 0-208.316 0.478-0.205 0.956-0.41 1.434-0.614 1.502 2.099 3.106 4.13 4.506 6.281 20.173 30.891 40.38 61.764 60.382 92.774 2.372 3.669 4.813 5.171 9.301 5.12 23.859-0.256 47.735-0.119 71.595-0.137 1.758 0 3.533-0.154 6.093-0.256-1.553-2.492-2.662-4.403-3.908-6.212-23.945-34.441-47.787-68.966-71.987-103.219-3.43-4.847-3.703-8.141-0.444-13.21 25.31-39.305 50.313-78.797 75.383-118.255 1.348-2.116 2.611-4.267 4.403-7.219-14.336-4.045-28.228-7.97-42.121-11.895-9.216-2.611-18.569-4.847-27.614-7.97-4.847-1.673-6.81-0.051-9.131 3.823-23.945 40.141-48.043 80.179-72.107 120.235-1.331 2.219-2.833 4.318-5.769 5.939 0-38.844 0-77.67 0-116.992-26.283 0-51.831 0-78.148 0 0 2.714 0 5.171 0 7.629 0 107.622 0.068 215.245-0.171 322.867-0.017 6.349 2.099 8.602 7.782 10.138 22.033 5.956 43.947 12.339 65.911 18.551 1.058 0.29 2.167 0.444 4.608 0.939zM1556.497 336.179c2.56-14.763 5.291-30.72 8.158-46.677 0.734-4.062-1.041-6.127-4.403-8.073-23.501-13.585-48.657-21.504-75.725-24.252-25.156-2.543-49.835-1.178-73.865 6.707-39.834 13.090-64.597 40.499-74.052 81.186-8.363 36.011-7.561 71.868 6.98 106.325 17.271 40.943 48.384 64.341 92.655 69.99 26.88 3.43 52.634 0.085 76.117-13.961 28.928-17.306 42.957-44.8 49.442-76.663 3.84-18.859 5.922-37.99 3.089-57.293-0.119-0.87-0.393-1.724-0.768-3.26-51.337 0-102.605 0-153.754 0-3.226-18.33 11.571-43.281 30.242-51.49 19.302-8.499 39.526-8.431 59.17-2.901 19.183 5.41 37.632 13.397 56.713 20.361zM1408.87 412.877c28.006 0 54.733 0 81.425 0 1.536 13.517-3.959 34.321-11.793 45.21-12.663 17.596-37.803 19.661-52.736 3.908-12.868-13.585-15.77-30.788-16.896-49.118zM1579.349 517.205c11.11 0 21.862 0.256 32.58-0.102 5.41-0.188 7.1 1.485 7.049 6.98-0.273 25.207-0.119 50.432-0.119 76.373 25.634 7.253 51.132 14.473 77.636 21.982 0-35.516 0-69.82 0-105.028 16.384 0 32.051 0 47.974 0 3.584-21.248 7.014-41.643 10.615-62.976-19.593 0-38.485 0-57.685 0-0.341-2.287-0.768-3.806-0.768-5.325 0.034-32.563-0.034-65.126 0.256-97.69 0.154-16.35 10.94-26.692 27.443-27.017 7.031-0.137 14.063-0.017 21.948-0.017 3.123-18.33 6.451-37.837 9.762-57.361 0.546-3.243-0.546-4.83-4.113-5.615-17.818-3.942-35.857-5.222-53.879-3.226-11.708 1.297-23.62 3.396-34.679 7.27-26.573 9.301-40.67 29.918-42.684 56.951-2.219 29.867-1.382 59.972-1.775 89.975-0.154 11.93-0.222 23.859 0.068 35.772 0.119 4.932-1.69 6.451-6.4 6.195-5.939-0.307-11.93 0.188-17.886-0.154-3.908-0.222-5.325 1.655-5.854 4.983-3.14 19.081-6.263 38.212-9.489 58.027zM1970.79 341.641c1.638-9.813 3.123-18.722 4.608-27.648 1.707-10.121 3.635-20.207 4.932-30.396 0.256-2.048-1.195-5.513-2.884-6.434-47.872-25.975-96.717-29.645-145.254-2.867-28.689 15.838-44.527 42.308-51.149 73.95-7.731 36.881-6.758 73.404 9.95 107.947 18.449 38.161 50.176 58.197 91.614 63.727 30.157 4.028 59.204 0.137 87.159-12.22 5.615-2.492 7.356-5.581 6.571-11.383-2.628-19.678-4.949-39.407-7.356-58.812-10.325 4.42-20.548 9.387-31.181 13.175-12.032 4.284-24.798 5.103-37.308 2.953-25.003-4.284-38.383-20.702-43.401-44.544-3.294-15.667-2.731-31.351 2.116-46.78 9.148-29.15 34.799-40.653 61.44-38.622 17.988 1.382 34.031 8.141 50.142 17.954z" />
<glyph unicode="&#xe90f;" glyph-name="icon-skype" d="M979.348 382.922c14.444-21.531 25.465-44.894 33.172-70.521 7.653-25.519 11.533-51.928 11.533-79.279 0-39.181-7.518-75.965-22.42-110.43-14.929-34.385-35.463-64.674-61.656-91.001-26.193-26.058-56.697-46.511-91.729-61.386s-71.923-22.151-111.131-22.151c-55.835 0-105.93 13.878-150.366 41.58-12.342-1.779-24.765-3.099-37.295-4.069-12.584-0.889-25.061-1.267-37.511-1.267-65.24 0-126.491 12.315-183.754 36.837-57.155 24.657-107.197 58.152-150.339 100.81-43.008 42.496-76.881 92.591-101.295 149.935-24.63 57.344-36.918 118.622-36.918 183.754 0 12.638 0.593 24.63 1.859 35.732 1.159 11.102 2.722 22.42 4.339 33.765-30.612 44.733-45.837 92.753-45.837 144.276 0 38.319 7.518 74.536 22.447 108.598 14.875 34.035 35.301 63.623 61.494 88.738 26.193 25.169 56.859 44.948 91.675 59.446 34.924 14.498 71.949 21.585 111.158 21.585 28.241 0 54.73-3.503 79.899-10.617 25.169-7.195 48.748-17.246 70.467-30.343 12.288 1.832 24.872 3.126 37.295 4.177 12.584 0.808 25.169 1.293 37.457 1.293 65.455 0 126.895-11.992 184.347-35.867 57.317-23.687 107.52-56.509 150.636-98.115 43.116-41.822 77.096-90.193 101.78-145.273 24.576-55.161 36.864-114.338 36.864-177.368 0.081-23.256-1.967-47.562-6.171-72.839zM737.091 239.562c20.157 27.944 30.1 60.739 30.1 98.439 0 29.669-5.605 54.622-16.68 74.86-11.533 20.157-27.756 37.026-48.748 50.499-19.267 13.069-44.328 24.657-74.968 35.059-30.828 8.138-63.542 16.115-98.115 24.253l-37.888 9.081c-10.159 2.291-18.243 4.204-24.333 5.955-6.764 1.752-13.016 3.665-18.971 5.955-5.605 2.102-11.56 4.554-17.516 7.249-11.56 5.093-21.261 12.045-28.968 20.184-5.955 7.033-8.947 16.465-8.947 28.214 0 17.139 9.701 32.445 28.968 46.026 21.827 12.665 48.478 18.755 80.168 18.351 36.621 0 62.356-5.686 76.854-17.112 17.516-13.528 31.259-30.181 41.068-49.826 8.542-14.417 17.219-25.169 26.193-32.229 8.542-6.899 20.426-10.617 35.328-11.102 16.788 0 30.693 5.875 42.415 17.677 11.426 11.021 16.923 23.417 16.627 37.376 0 16.168-4.339 32.040-12.854 47.373-8.435 14.363-22.582 29.669-42.092 45.918-9.863 6.979-20.696 13.393-32.418 19.24-11.722 5.901-24.926 11.102-39.262 15.495-15.010 4.285-30.801 7.599-47.427 9.836-16.68 2.183-34.87 3.234-55.027 3.234-50.769 0-93.615-6.548-128.485-19.618-37.484-13.608-65.832-32.31-85.046-56.589-19.213-23.094-28.834-50.85-28.834-83.267 0-34.115 9.324-61.871 27.675-83.267 18.486-23.148 43.547-40.637 75.237-52.52 30.1-12.665 68.608-23.768 115.793-33.361 17.651-4.392 33.091-8.111 46.727-10.914 13.447-2.776 25.654-5.955 36.325-9.405 20.103-5.767 36.46-15.441 48.909-29.184 13.312-11.911 19.995-27.217 19.995-46.107 0-26.112-12.153-47.239-36.19-63.353-22.717-16.519-53.41-24.657-92.079-24.091-30.963 0-53.383 3.746-67.584 11.372-17.651 8.461-30.666 19.213-39.208 32.013-10.86 14.605-19.51 30.801-26.489 48.29-6.090 16.6-14.282 29.13-25.007 37.592-9.997 8.542-21.693 12.8-35.436 12.8-17.516 0-31.987-5.147-43.412-15.252-11.453-11.507-16.923-24.98-16.68-40.125 0-26.381 9.27-52.736 27.648-79.144 18.243-27.163 41.688-48.397 70.225-63.65 41.795-22.744 94.316-34.25 157.427-34.708 51.496 0 97.388 8.057 137.324 24.145 39.316 18.378 68.581 41.095 87.66 68.339z" />
<glyph unicode="&#xe910;" glyph-name="time" horiz-adv-x="706" d="M704.441 796.125v107.379c0 27.295-22.14 49.434-49.434 49.434h-593.214c-27.295 0-49.434-22.14-49.434-49.434v-107.379c0-39.018 15.819-77.224 43.432-104.836l232.695-232.695-232.695-232.73c-28.036-28.036-43.432-65.254-43.432-104.872v-107.308c0-27.295 22.14-49.434 49.434-49.434h593.214c27.295 0 49.434 22.14 49.434 49.434v107.308c0 39.618-15.431 76.871-43.432 104.872l-232.695 232.73 232.695 232.695c27.577 27.613 43.432 65.783 43.432 104.836zM605.572 120.991v-57.874h-494.345v57.874c0 13.241 5.155 25.635 14.477 34.957l232.695 232.695 232.695-232.695c9.322-9.322 14.477-21.716 14.477-34.957zM605.572 796.125c0-12.959-5.297-25.706-14.477-34.922l-232.695-232.695-232.695 232.695c-9.181 9.216-14.477 21.963-14.477 34.922v57.944h494.345v-57.944z" />
<glyph unicode="&#xe911;" glyph-name="icon-twitter" horiz-adv-x="1536" d="M1342.805 504.789c83.499 6.869 140.117 44.843 161.92 96.341-30.123-18.517-123.605-38.656-175.232-19.456-2.517 12.117-5.376 23.637-8.149 34.048-39.339 144.469-174.037 260.821-315.179 246.784 11.435 4.608 22.997 8.917 34.56 12.757 15.531 5.547 106.667 20.395 92.331 52.565-12.117 28.288-123.477-21.376-144.427-27.861 27.691 10.411 73.472 28.331 78.379 60.117-42.411-5.803-84.053-25.856-116.181-54.997 11.605 12.501 20.437 27.733 22.272 44.117-113.109-72.235-179.157-217.941-232.619-359.211-41.984 40.704-79.189 72.747-112.555 90.539-93.653 50.219-205.611 102.613-381.397 167.851-5.419-58.197 28.715-135.552 127.147-186.965-21.333 2.859-60.331-3.499-91.52-10.965 12.715-66.603 54.187-121.515 166.485-148.053-51.328-3.413-77.824-15.061-101.888-40.235 23.381-46.336 80.427-100.864 182.997-89.685-114.048-49.152-46.507-140.203 46.293-126.635-158.293-163.541-407.936-151.509-551.296-14.72 374.272-509.995 1187.883-301.611 1309.141 189.611 90.837-0.768 144.256 31.488 177.365 67.029-52.352-8.917-128.213 0.256-168.448 17.024z" />
<glyph unicode="&#xe912;" glyph-name="icon-vm" d="M512 887.467c242.325 0 439.467-197.141 439.467-439.467s-197.141-439.467-439.467-439.467c-242.325 0-439.467 197.141-439.467 439.467s197.141 439.467 439.467 439.467zM512 908.8c-254.496 0-460.8-206.304-460.8-460.8s206.304-460.8 460.8-460.8c254.496 0 460.8 206.304 460.8 460.8s-206.304 460.8-460.8 460.8v0zM213.451 573.867l103.883-280.107c9.557-25.781 38.613-39.083 64.885-29.696s39.819 37.899 30.251 63.68l-103.883 280.117c-9.557 25.781-38.613 39.083-64.885 29.696-26.261-9.387-39.808-37.899-30.251-63.691zM515.051 573.867l-103.883-280.107c-9.557-25.781-38.613-39.083-64.885-29.696s-39.819 37.899-30.251 63.68l103.883 280.117c9.557 25.781 38.613 39.083 64.885 29.696 26.261-9.387 39.808-37.899 30.251-63.691zM418.603 573.867l103.883-280.117c9.557-25.781 38.613-39.083 64.885-29.696s39.819 37.899 30.251 63.68l-103.883 280.117c-9.557 25.781-38.613 39.083-64.885 29.696-26.261-9.376-39.808-37.888-30.251-63.68zM720.203 573.867l-103.883-280.107c-9.557-25.781-38.613-39.083-64.885-29.696s-39.819 37.899-30.251 63.68l103.883 280.117c9.557 25.781 38.613 39.083 64.885 29.696 26.261-9.387 39.808-37.899 30.251-63.691zM623.755 573.867l103.883-280.117c9.557-25.781 38.613-39.083 64.885-29.696s39.819 37.899 30.251 63.68l-103.883 280.117c-9.557 25.781-38.613 39.083-64.885 29.696-26.261-9.376-39.808-37.888-30.251-63.68z" />
<glyph unicode="&#xe913;" glyph-name="anvil" horiz-adv-x="848" d="M818.322 287.086c15.536 6.232 25.746 21.27 25.746 38.034v122.88c0 22.587-18.344 40.96-40.96 40.96h-409.6c-22.616 0-40.96-18.373-40.96-40.96h-286.72c-15.097 0-28.994-8.309-36.133-21.65-7.109-13.312-6.349-29.462 2.048-42.043l81.92-122.88c6.29-9.45 16.179-15.828 27.326-17.671l211.558-35.255v-21.914l-141.195-70.597c-13.897-6.934-22.645-21.094-22.645-36.63v-81.92c0-22.616 18.344-40.96 40.96-40.96h573.44c22.616 0 40.96 18.344 40.96 40.96v81.92c0 16.764-10.211 31.803-25.746 38.005l-179.054 71.621v26.478l179.054 71.621zM171.973 321.638l-29.608 44.442h210.183v-74.547l-180.575 30.106zM583.095 123.246l179.054-71.592v-13.253h-491.52v15.594l141.195 70.656c13.868 6.905 22.645 21.094 22.645 36.63v245.76h327.68v-54.213l-179.054-71.621c-15.536-6.203-25.746-21.27-25.746-38.005v-81.92c0-16.764 10.211-31.803 25.746-38.034zM434.469 570.88c0-22.616 18.344-40.96 40.96-40.96h204.8c22.616 0 40.96 18.344 40.96 40.96v327.68c0 22.587-18.344 40.96-40.96 40.96h-204.8c-22.616 0-40.96-18.373-40.96-40.96v-122.88h-409.6v-81.92h409.6v-122.88zM516.389 857.6h122.88v-245.76h-122.88v245.76z" />
</font>
</defs>
</svg>
